<mxfile host="app.diagrams.net" modified="2022-05-19T06:41:57.923Z" agent="5.0 (Windows)" etag="lgdUKiOz58dlTAta4OQ7" version="18.0.7" type="github">
  <diagram id="C5RBs43oDa-KdzZeNtuy" name="Page-1">
    <mxGraphModel dx="1102" dy="600" grid="1" gridSize="10" guides="1" tooltips="1" connect="1" arrows="1" fold="1" page="1" pageScale="1" pageWidth="827" pageHeight="1169" math="0" shadow="0">
      <root>
        <mxCell id="WIyWlLk6GJQsqaUBKTNV-0" />
        <mxCell id="WIyWlLk6GJQsqaUBKTNV-1" parent="WIyWlLk6GJQsqaUBKTNV-0" />
        <mxCell id="zkfFHV4jXpPFQw0GAbJ--0" value="    Niveau" style="swimlane;fontStyle=2;align=center;verticalAlign=top;childLayout=stackLayout;horizontal=1;startSize=26;horizontalStack=0;resizeParent=1;resizeLast=0;collapsible=1;marginBottom=0;rounded=0;shadow=0;strokeWidth=1;" parent="WIyWlLk6GJQsqaUBKTNV-1" vertex="1">
          <mxGeometry x="220" y="120" width="190" height="180" as="geometry">
            <mxRectangle x="230" y="140" width="160" height="26" as="alternateBounds" />
          </mxGeometry>
        </mxCell>
        <mxCell id="i5Fnf2mXaWRZz45Ac03j-2" value="-Taille de l&#39;écran" style="text;html=1;align=center;verticalAlign=middle;resizable=0;points=[];autosize=1;strokeColor=none;fillColor=none;" vertex="1" parent="zkfFHV4jXpPFQw0GAbJ--0">
          <mxGeometry y="26" width="190" height="20" as="geometry" />
        </mxCell>
        <mxCell id="i5Fnf2mXaWRZz45Ac03j-3" value="-Création des murs" style="text;html=1;align=center;verticalAlign=middle;resizable=0;points=[];autosize=1;strokeColor=none;fillColor=none;" vertex="1" parent="zkfFHV4jXpPFQw0GAbJ--0">
          <mxGeometry y="46" width="190" height="20" as="geometry" />
        </mxCell>
        <mxCell id="i5Fnf2mXaWRZz45Ac03j-5" value="-Couleur des murs" style="text;html=1;align=center;verticalAlign=middle;resizable=0;points=[];autosize=1;strokeColor=none;fillColor=none;" vertex="1" parent="zkfFHV4jXpPFQw0GAbJ--0">
          <mxGeometry y="66" width="190" height="20" as="geometry" />
        </mxCell>
        <mxCell id="i5Fnf2mXaWRZz45Ac03j-4" value="-Création des boules jaunes" style="text;html=1;align=center;verticalAlign=middle;resizable=0;points=[];autosize=1;strokeColor=none;fillColor=none;" vertex="1" parent="zkfFHV4jXpPFQw0GAbJ--0">
          <mxGeometry y="86" width="190" height="20" as="geometry" />
        </mxCell>
        <mxCell id="i5Fnf2mXaWRZz45Ac03j-6" value="-Zone d&#39;apparition des fantomes" style="text;html=1;align=center;verticalAlign=middle;resizable=0;points=[];autosize=1;strokeColor=none;fillColor=none;" vertex="1" parent="zkfFHV4jXpPFQw0GAbJ--0">
          <mxGeometry y="106" width="190" height="20" as="geometry" />
        </mxCell>
        <mxCell id="i5Fnf2mXaWRZz45Ac03j-20" value="-nombre de point pour gagner" style="text;html=1;align=center;verticalAlign=middle;resizable=0;points=[];autosize=1;strokeColor=none;fillColor=none;" vertex="1" parent="zkfFHV4jXpPFQw0GAbJ--0">
          <mxGeometry y="126" width="190" height="20" as="geometry" />
        </mxCell>
        <mxCell id="i5Fnf2mXaWRZz45Ac03j-29" value="-Nombre de boules jaunes" style="text;html=1;align=center;verticalAlign=middle;resizable=0;points=[];autosize=1;strokeColor=none;fillColor=none;" vertex="1" parent="zkfFHV4jXpPFQw0GAbJ--0">
          <mxGeometry y="146" width="190" height="20" as="geometry" />
        </mxCell>
        <mxCell id="i5Fnf2mXaWRZz45Ac03j-7" value="" style="endArrow=classic;html=1;rounded=0;entryX=1.005;entryY=0.5;entryDx=0;entryDy=0;entryPerimeter=0;" edge="1" parent="WIyWlLk6GJQsqaUBKTNV-1" target="i5Fnf2mXaWRZz45Ac03j-3">
          <mxGeometry width="50" height="50" relative="1" as="geometry">
            <mxPoint x="530" y="176" as="sourcePoint" />
            <mxPoint x="440" y="280" as="targetPoint" />
          </mxGeometry>
        </mxCell>
        <mxCell id="i5Fnf2mXaWRZz45Ac03j-14" value="Joueur (pacman)" style="swimlane;fontStyle=2;align=center;verticalAlign=top;childLayout=stackLayout;horizontal=1;startSize=26;horizontalStack=0;resizeParent=1;resizeLast=0;collapsible=1;marginBottom=0;rounded=0;shadow=0;strokeWidth=1;" vertex="1" parent="WIyWlLk6GJQsqaUBKTNV-1">
          <mxGeometry x="530" y="120" width="190" height="160" as="geometry">
            <mxRectangle x="230" y="140" width="160" height="26" as="alternateBounds" />
          </mxGeometry>
        </mxCell>
        <mxCell id="i5Fnf2mXaWRZz45Ac03j-15" value="-Taille du joueur" style="text;html=1;align=center;verticalAlign=middle;resizable=0;points=[];autosize=1;strokeColor=none;fillColor=none;" vertex="1" parent="i5Fnf2mXaWRZz45Ac03j-14">
          <mxGeometry y="26" width="190" height="20" as="geometry" />
        </mxCell>
        <mxCell id="i5Fnf2mXaWRZz45Ac03j-16" value="-vitesse du joueur" style="text;html=1;align=center;verticalAlign=middle;resizable=0;points=[];autosize=1;strokeColor=none;fillColor=none;" vertex="1" parent="i5Fnf2mXaWRZz45Ac03j-14">
          <mxGeometry y="46" width="190" height="20" as="geometry" />
        </mxCell>
        <mxCell id="i5Fnf2mXaWRZz45Ac03j-17" value="-Couleur du joueur" style="text;html=1;align=center;verticalAlign=middle;resizable=0;points=[];autosize=1;strokeColor=none;fillColor=none;" vertex="1" parent="i5Fnf2mXaWRZz45Ac03j-14">
          <mxGeometry y="66" width="190" height="20" as="geometry" />
        </mxCell>
        <mxCell id="i5Fnf2mXaWRZz45Ac03j-18" value="-nombre de vie du joueur" style="text;html=1;align=center;verticalAlign=middle;resizable=0;points=[];autosize=1;strokeColor=none;fillColor=none;" vertex="1" parent="i5Fnf2mXaWRZz45Ac03j-14">
          <mxGeometry y="86" width="190" height="20" as="geometry" />
        </mxCell>
        <mxCell id="i5Fnf2mXaWRZz45Ac03j-19" value="-déplacement du joueur" style="text;html=1;align=center;verticalAlign=middle;resizable=0;points=[];autosize=1;strokeColor=none;fillColor=none;" vertex="1" parent="i5Fnf2mXaWRZz45Ac03j-14">
          <mxGeometry y="106" width="190" height="20" as="geometry" />
        </mxCell>
        <mxCell id="i5Fnf2mXaWRZz45Ac03j-21" value="-mort du joueur" style="text;html=1;align=center;verticalAlign=middle;resizable=0;points=[];autosize=1;strokeColor=none;fillColor=none;" vertex="1" parent="i5Fnf2mXaWRZz45Ac03j-14">
          <mxGeometry y="126" width="190" height="20" as="geometry" />
        </mxCell>
        <mxCell id="i5Fnf2mXaWRZz45Ac03j-22" value="" style="endArrow=classic;html=1;rounded=0;exitX=0.638;exitY=-0.01;exitDx=0;exitDy=0;exitPerimeter=0;" edge="1" parent="WIyWlLk6GJQsqaUBKTNV-1" source="i5Fnf2mXaWRZz45Ac03j-23">
          <mxGeometry width="50" height="50" relative="1" as="geometry">
            <mxPoint x="340" y="400" as="sourcePoint" />
            <mxPoint x="340" y="300" as="targetPoint" />
          </mxGeometry>
        </mxCell>
        <mxCell id="i5Fnf2mXaWRZz45Ac03j-23" value="fantôme" style="swimlane;" vertex="1" parent="WIyWlLk6GJQsqaUBKTNV-1">
          <mxGeometry x="232.5" y="360" width="170" height="200" as="geometry" />
        </mxCell>
        <mxCell id="i5Fnf2mXaWRZz45Ac03j-24" value="-Taille fantôme" style="text;html=1;align=center;verticalAlign=middle;resizable=0;points=[];autosize=1;strokeColor=none;fillColor=none;" vertex="1" parent="i5Fnf2mXaWRZz45Ac03j-23">
          <mxGeometry y="30" width="100" height="20" as="geometry" />
        </mxCell>
        <mxCell id="i5Fnf2mXaWRZz45Ac03j-25" value="-Couleur fantôme" style="text;html=1;align=center;verticalAlign=middle;resizable=0;points=[];autosize=1;strokeColor=none;fillColor=none;" vertex="1" parent="i5Fnf2mXaWRZz45Ac03j-23">
          <mxGeometry x="-4" y="50" width="110" height="20" as="geometry" />
        </mxCell>
        <mxCell id="i5Fnf2mXaWRZz45Ac03j-26" value="-Nombre fantôme" style="text;html=1;align=center;verticalAlign=middle;resizable=0;points=[];autosize=1;strokeColor=none;fillColor=none;" vertex="1" parent="i5Fnf2mXaWRZz45Ac03j-23">
          <mxGeometry x="-5" y="70" width="110" height="20" as="geometry" />
        </mxCell>
        <mxCell id="i5Fnf2mXaWRZz45Ac03j-27" value="-vitesse fantôme" style="text;html=1;align=center;verticalAlign=middle;resizable=0;points=[];autosize=1;strokeColor=none;fillColor=none;" vertex="1" parent="i5Fnf2mXaWRZz45Ac03j-23">
          <mxGeometry x="-4" y="90" width="110" height="20" as="geometry" />
        </mxCell>
        <mxCell id="i5Fnf2mXaWRZz45Ac03j-28" value="-Déplacement fantôme" style="text;html=1;align=center;verticalAlign=middle;resizable=0;points=[];autosize=1;strokeColor=none;fillColor=none;" vertex="1" parent="i5Fnf2mXaWRZz45Ac03j-23">
          <mxGeometry x="-4" y="110" width="140" height="20" as="geometry" />
        </mxCell>
        <mxCell id="i5Fnf2mXaWRZz45Ac03j-30" value="-fantome touche joueur" style="text;html=1;align=center;verticalAlign=middle;resizable=0;points=[];autosize=1;strokeColor=none;fillColor=none;" vertex="1" parent="i5Fnf2mXaWRZz45Ac03j-23">
          <mxGeometry x="-5" y="130" width="140" height="20" as="geometry" />
        </mxCell>
      </root>
    </mxGraphModel>
  </diagram>
</mxfile>
